<svg xmlns="http://www.w3.org/2000/svg" width="32" height="32" viewBox="0 0 32 32">
  <g id="Group_121" data-name="Group 121" transform="translate(-68 -730)">
    <g id="Rectangle_8" data-name="Rectangle 8" transform="translate(72 734)" fill="none" stroke="#fff" stroke-width="2">
      <rect width="28" height="28" rx="3" stroke="none"/>
      <rect x="1" y="1" width="26" height="26" rx="2" fill="none"/>
    </g>
    <rect id="Rectangle_9" data-name="Rectangle 9" width="28" height="28" rx="3" transform="translate(68 730)"/>
    <path id="Icon_awesome-behance-square" data-name="Icon awesome-behance-square" d="M11.654,18.56c0,1.206-.875,1.587-1.95,1.587H6.886V16.842H9.761C10.923,16.848,11.654,17.329,11.654,18.56Zm-.481-5.143c0-1.106-.856-1.369-1.806-1.369H6.893v2.8H9.561C10.5,14.848,11.173,14.436,11.173,13.417Zm8.267,1.45a1.863,1.863,0,0,0-1.981,1.856h3.887A1.781,1.781,0,0,0,19.441,14.867ZM28,5.25v22a3,3,0,0,1-3,3H3a3,3,0,0,1-3-3v-22a3,3,0,0,1,3-3H25A3,3,0,0,1,28,5.25ZM16.979,11.811H21.84V10.63H16.979ZM14.292,18.7A3.107,3.107,0,0,0,12.1,15.479a2.333,2.333,0,0,0,1.637-2.312c0-2.387-1.781-2.968-3.837-2.968H4.249v12h5.818C12.248,22.184,14.292,21.141,14.292,18.7Zm9.455-.925c0-2.568-1.506-4.712-4.224-4.712a4.361,4.361,0,0,0-4.443,4.6,4.234,4.234,0,0,0,4.443,4.562A3.874,3.874,0,0,0,23.59,19.3H21.484A1.977,1.977,0,0,1,19.6,20.435a1.961,1.961,0,0,1-2.131-2.206h6.262C23.734,18.085,23.746,17.929,23.746,17.779Z" transform="translate(68 727.75)" fill="#fff"/>
  </g>
</svg>
