<svg xmlns="http://www.w3.org/2000/svg" width="32" height="32" viewBox="0 0 32 32">
  <g id="Group_122" data-name="Group 122" transform="translate(-20 -730)">
    <g id="Rectangle_6" data-name="Rectangle 6" transform="translate(24 734)" fill="none" stroke="#fff" stroke-width="2">
      <rect width="28" height="28" rx="3" stroke="none"/>
      <rect x="1" y="1" width="26" height="26" rx="2" fill="none"/>
    </g>
    <rect id="Rectangle_7" data-name="Rectangle 7" width="28" height="28" rx="3" transform="translate(20 730)"/>
    <path id="Icon_zocial-instagram" data-name="Icon zocial-instagram" d="M2.486,27.911a3.328,3.328,0,0,1-1.532-.87,3.08,3.08,0,0,1-.848-1.461c-.1-.388-.1-.755-.1-11.559C0,1.884-.02,2.551.3,1.867A3.265,3.265,0,0,1,1.889.286c.706-.312.016-.3,12.248-.279L25.406.018l.35.12a3.318,3.318,0,0,1,2.1,2.1l.12.35.011,11.269c.016,12.516.044,11.581-.356,12.39a3.25,3.25,0,0,1-1.384,1.384c-.8.394.109.367-12.275.361C4.5,27.988,2.765,27.977,2.486,27.911Zm21.8-3.331c.449-.317.46-.35.476-2.434.016-2.029.005-2.133-.328-2.456-.3-.3-.443-.312-2.423-.306l-1.805.005-.246.131a1.345,1.345,0,0,0-.4.383l-.164.241-.005,1.811c-.005.99.016,1.893.044,2a1.022,1.022,0,0,0,.558.689l.274.137,1.9-.016,1.893-.016Zm-9.2-5.312a5.429,5.429,0,0,0,4.19-4.212,6.682,6.682,0,0,0,.06-1.778,5.51,5.51,0,0,0-2.806-4.026,5.87,5.87,0,0,0-1.444-.536c-.1-.011-.323-.044-.487-.071a5.4,5.4,0,0,0-4.879,2.09,5.352,5.352,0,0,0,.1,6.646,5.454,5.454,0,0,0,3.61,1.964A5.709,5.709,0,0,0,15.089,19.268Zm-9.524-3.55a8.681,8.681,0,0,1,.722-5.552A8.047,8.047,0,0,1,7.923,7.917a8.532,8.532,0,0,1,7.445-2.429,8.666,8.666,0,0,1,6.969,6.345,8.5,8.5,0,0,1,.224,3.063,6.023,6.023,0,0,1-.224,1.182c-.016.027-.011.049.016.055.208.022,2.336.016,2.374-.011s.044-2.445.038-6.1L24.749,3.94l-.164-.235a1.367,1.367,0,0,0-.41-.361l-.246-.126-9.989.016-9.983.011-.224.148a1.439,1.439,0,0,0-.35.356l-.131.208L3.235,10c-.005,3.326-.005,6.067.011,6.1a5.887,5.887,0,0,0,1.22.055h1.2Z" transform="translate(47.996 757.996) rotate(180)" fill="#fff"/>
  </g>
</svg>
